<mxfile host="app.diagrams.net" agent="Mozilla/5.0 (Windows NT 10.0; Win64; x64) AppleWebKit/537.36 (KHTML, like Gecko) Chrome/137.0.0.0 Safari/537.36" version="27.1.4">
  <diagram name="Page-1" id="ybWPetWqNjrksNawxAk_">
    <mxGraphModel dx="1042" dy="526" grid="1" gridSize="10" guides="1" tooltips="1" connect="1" arrows="1" fold="1" page="1" pageScale="1" pageWidth="850" pageHeight="1100" background="#FFFFFF" math="0" shadow="0">
      <root>
        <mxCell id="0" />
        <mxCell id="1" parent="0" />
        <mxCell id="m0oAnm_TRABMZVKxJMzM-2" value="" style="rounded=0;whiteSpace=wrap;html=1;" parent="1" vertex="1">
          <mxGeometry x="60" y="130" width="740" height="840" as="geometry" />
        </mxCell>
        <mxCell id="m0oAnm_TRABMZVKxJMzM-3" value="Desktop" style="text;html=1;align=center;verticalAlign=middle;resizable=0;points=[];autosize=1;strokeColor=none;fillColor=none;" parent="1" vertex="1">
          <mxGeometry x="60" y="100" width="70" height="30" as="geometry" />
        </mxCell>
        <mxCell id="m0oAnm_TRABMZVKxJMzM-4" value="" style="rounded=0;whiteSpace=wrap;html=1;" parent="1" vertex="1">
          <mxGeometry x="60" y="130" width="740" height="70" as="geometry" />
        </mxCell>
        <mxCell id="m0oAnm_TRABMZVKxJMzM-10" value="Site Title" style="text;html=1;align=center;verticalAlign=middle;whiteSpace=wrap;rounded=0;" parent="1" vertex="1">
          <mxGeometry x="180" y="140" width="220" height="50" as="geometry" />
        </mxCell>
        <mxCell id="m0oAnm_TRABMZVKxJMzM-11" value="Page1" style="text;html=1;align=center;verticalAlign=middle;resizable=0;points=[];autosize=1;strokeColor=none;fillColor=none;" parent="1" vertex="1">
          <mxGeometry x="560" y="150" width="60" height="30" as="geometry" />
        </mxCell>
        <mxCell id="m0oAnm_TRABMZVKxJMzM-12" value="Page2" style="text;html=1;align=center;verticalAlign=middle;resizable=0;points=[];autosize=1;strokeColor=none;fillColor=none;" parent="1" vertex="1">
          <mxGeometry x="640" y="150" width="60" height="30" as="geometry" />
        </mxCell>
        <mxCell id="m0oAnm_TRABMZVKxJMzM-13" value="Page3" style="text;html=1;align=center;verticalAlign=middle;resizable=0;points=[];autosize=1;strokeColor=none;fillColor=none;" parent="1" vertex="1">
          <mxGeometry x="720" y="150" width="60" height="30" as="geometry" />
        </mxCell>
        <mxCell id="m0oAnm_TRABMZVKxJMzM-14" value="Page Header" style="rounded=0;whiteSpace=wrap;html=1;" parent="1" vertex="1">
          <mxGeometry x="80" y="220" width="370" height="60" as="geometry" />
        </mxCell>
        <mxCell id="m0oAnm_TRABMZVKxJMzM-18" value="" style="group" parent="1" vertex="1" connectable="0">
          <mxGeometry x="130" y="310" width="140" height="140" as="geometry" />
        </mxCell>
        <mxCell id="m0oAnm_TRABMZVKxJMzM-15" value="" style="rounded=0;whiteSpace=wrap;html=1;" parent="m0oAnm_TRABMZVKxJMzM-18" vertex="1">
          <mxGeometry width="140" height="140" as="geometry" />
        </mxCell>
        <mxCell id="m0oAnm_TRABMZVKxJMzM-16" value="" style="endArrow=none;dashed=1;html=1;rounded=0;exitX=0;exitY=1;exitDx=0;exitDy=0;" parent="m0oAnm_TRABMZVKxJMzM-18" source="m0oAnm_TRABMZVKxJMzM-15" edge="1">
          <mxGeometry width="50" height="50" relative="1" as="geometry">
            <mxPoint x="40" y="100" as="sourcePoint" />
            <mxPoint x="140" as="targetPoint" />
          </mxGeometry>
        </mxCell>
        <mxCell id="m0oAnm_TRABMZVKxJMzM-17" value="" style="endArrow=none;dashed=1;html=1;rounded=0;exitX=0;exitY=0;exitDx=0;exitDy=0;entryX=1;entryY=1;entryDx=0;entryDy=0;" parent="m0oAnm_TRABMZVKxJMzM-18" source="m0oAnm_TRABMZVKxJMzM-15" target="m0oAnm_TRABMZVKxJMzM-15" edge="1">
          <mxGeometry width="50" height="50" relative="1" as="geometry">
            <mxPoint x="62.139999999999986" y="40" as="sourcePoint" />
            <mxPoint x="77.84857142857152" y="200" as="targetPoint" />
          </mxGeometry>
        </mxCell>
        <mxCell id="m0oAnm_TRABMZVKxJMzM-19" value="Budgeting Topic&amp;nbsp;" style="rounded=0;whiteSpace=wrap;html=1;" parent="1" vertex="1">
          <mxGeometry x="320" y="310" width="400" height="140" as="geometry" />
        </mxCell>
        <mxCell id="m0oAnm_TRABMZVKxJMzM-20" value="Budgeting Topic&amp;nbsp;" style="rounded=0;whiteSpace=wrap;html=1;" parent="1" vertex="1">
          <mxGeometry x="130" y="500" width="400" height="140" as="geometry" />
        </mxCell>
        <mxCell id="m0oAnm_TRABMZVKxJMzM-25" value="" style="group" parent="1" vertex="1" connectable="0">
          <mxGeometry x="580" y="500" width="140" height="140" as="geometry" />
        </mxCell>
        <mxCell id="m0oAnm_TRABMZVKxJMzM-26" value="" style="rounded=0;whiteSpace=wrap;html=1;" parent="m0oAnm_TRABMZVKxJMzM-25" vertex="1">
          <mxGeometry width="140" height="140" as="geometry" />
        </mxCell>
        <mxCell id="m0oAnm_TRABMZVKxJMzM-27" value="" style="endArrow=none;dashed=1;html=1;rounded=0;exitX=0;exitY=1;exitDx=0;exitDy=0;" parent="m0oAnm_TRABMZVKxJMzM-25" source="m0oAnm_TRABMZVKxJMzM-26" edge="1">
          <mxGeometry width="50" height="50" relative="1" as="geometry">
            <mxPoint x="40" y="100" as="sourcePoint" />
            <mxPoint x="140" as="targetPoint" />
          </mxGeometry>
        </mxCell>
        <mxCell id="m0oAnm_TRABMZVKxJMzM-28" value="" style="endArrow=none;dashed=1;html=1;rounded=0;exitX=0;exitY=0;exitDx=0;exitDy=0;entryX=1;entryY=1;entryDx=0;entryDy=0;" parent="m0oAnm_TRABMZVKxJMzM-25" source="m0oAnm_TRABMZVKxJMzM-26" target="m0oAnm_TRABMZVKxJMzM-26" edge="1">
          <mxGeometry width="50" height="50" relative="1" as="geometry">
            <mxPoint x="62.139999999999986" y="40" as="sourcePoint" />
            <mxPoint x="77.84857142857152" y="200" as="targetPoint" />
          </mxGeometry>
        </mxCell>
        <mxCell id="m0oAnm_TRABMZVKxJMzM-30" value="" style="group" parent="1" vertex="1" connectable="0">
          <mxGeometry x="130" y="690" width="140" height="140" as="geometry" />
        </mxCell>
        <mxCell id="m0oAnm_TRABMZVKxJMzM-31" value="" style="rounded=0;whiteSpace=wrap;html=1;" parent="m0oAnm_TRABMZVKxJMzM-30" vertex="1">
          <mxGeometry width="140" height="140" as="geometry" />
        </mxCell>
        <mxCell id="m0oAnm_TRABMZVKxJMzM-32" value="" style="endArrow=none;dashed=1;html=1;rounded=0;exitX=0;exitY=1;exitDx=0;exitDy=0;" parent="m0oAnm_TRABMZVKxJMzM-30" source="m0oAnm_TRABMZVKxJMzM-31" edge="1">
          <mxGeometry width="50" height="50" relative="1" as="geometry">
            <mxPoint x="40" y="100" as="sourcePoint" />
            <mxPoint x="140" as="targetPoint" />
          </mxGeometry>
        </mxCell>
        <mxCell id="m0oAnm_TRABMZVKxJMzM-33" value="" style="endArrow=none;dashed=1;html=1;rounded=0;exitX=0;exitY=0;exitDx=0;exitDy=0;entryX=1;entryY=1;entryDx=0;entryDy=0;" parent="m0oAnm_TRABMZVKxJMzM-30" source="m0oAnm_TRABMZVKxJMzM-31" target="m0oAnm_TRABMZVKxJMzM-31" edge="1">
          <mxGeometry width="50" height="50" relative="1" as="geometry">
            <mxPoint x="62.139999999999986" y="40" as="sourcePoint" />
            <mxPoint x="77.84857142857152" y="200" as="targetPoint" />
          </mxGeometry>
        </mxCell>
        <mxCell id="m0oAnm_TRABMZVKxJMzM-34" value="Budgeting Topic&amp;nbsp;" style="rounded=0;whiteSpace=wrap;html=1;" parent="1" vertex="1">
          <mxGeometry x="320" y="690" width="400" height="140" as="geometry" />
        </mxCell>
        <mxCell id="m0oAnm_TRABMZVKxJMzM-35" value="Footer&amp;nbsp; - Copyright, external links" style="rounded=0;whiteSpace=wrap;html=1;" parent="1" vertex="1">
          <mxGeometry x="60" y="900" width="740" height="70" as="geometry" />
        </mxCell>
        <mxCell id="m0oAnm_TRABMZVKxJMzM-36" value="" style="rounded=0;whiteSpace=wrap;html=1;" parent="1" vertex="1">
          <mxGeometry x="860" y="130" width="450" height="850" as="geometry" />
        </mxCell>
        <mxCell id="m0oAnm_TRABMZVKxJMzM-37" value="Mobile" style="text;html=1;align=center;verticalAlign=middle;resizable=0;points=[];autosize=1;strokeColor=none;fillColor=none;" parent="1" vertex="1">
          <mxGeometry x="860" y="100" width="60" height="30" as="geometry" />
        </mxCell>
        <mxCell id="m0oAnm_TRABMZVKxJMzM-39" value="" style="group" parent="1" vertex="1" connectable="0">
          <mxGeometry x="80" y="130" width="70" height="70" as="geometry" />
        </mxCell>
        <mxCell id="m0oAnm_TRABMZVKxJMzM-7" value="" style="rounded=0;whiteSpace=wrap;html=1;" parent="m0oAnm_TRABMZVKxJMzM-39" vertex="1">
          <mxGeometry width="70" height="70" as="geometry" />
        </mxCell>
        <mxCell id="m0oAnm_TRABMZVKxJMzM-8" value="" style="endArrow=none;dashed=1;html=1;rounded=0;exitX=0;exitY=1;exitDx=0;exitDy=0;" parent="m0oAnm_TRABMZVKxJMzM-39" source="m0oAnm_TRABMZVKxJMzM-7" edge="1">
          <mxGeometry width="50" height="50" relative="1" as="geometry">
            <mxPoint x="20" y="50" as="sourcePoint" />
            <mxPoint x="70" as="targetPoint" />
          </mxGeometry>
        </mxCell>
        <mxCell id="m0oAnm_TRABMZVKxJMzM-9" value="" style="endArrow=none;dashed=1;html=1;rounded=0;exitX=0;exitY=0;exitDx=0;exitDy=0;entryX=1;entryY=1;entryDx=0;entryDy=0;" parent="m0oAnm_TRABMZVKxJMzM-39" source="m0oAnm_TRABMZVKxJMzM-7" target="m0oAnm_TRABMZVKxJMzM-7" edge="1">
          <mxGeometry width="50" height="50" relative="1" as="geometry">
            <mxPoint x="31.069999999999993" y="20" as="sourcePoint" />
            <mxPoint x="38.92428571428576" y="100" as="targetPoint" />
          </mxGeometry>
        </mxCell>
        <mxCell id="m0oAnm_TRABMZVKxJMzM-40" value="" style="rounded=0;whiteSpace=wrap;html=1;" parent="1" vertex="1">
          <mxGeometry x="860" y="130" width="450" height="70" as="geometry" />
        </mxCell>
        <mxCell id="m0oAnm_TRABMZVKxJMzM-41" value="Site Title" style="text;html=1;align=center;verticalAlign=middle;whiteSpace=wrap;rounded=0;" parent="1" vertex="1">
          <mxGeometry x="980" y="140" width="220" height="50" as="geometry" />
        </mxCell>
        <mxCell id="m0oAnm_TRABMZVKxJMzM-42" value="" style="group" parent="1" vertex="1" connectable="0">
          <mxGeometry x="880" y="130" width="70" height="70" as="geometry" />
        </mxCell>
        <mxCell id="m0oAnm_TRABMZVKxJMzM-43" value="" style="rounded=0;whiteSpace=wrap;html=1;" parent="m0oAnm_TRABMZVKxJMzM-42" vertex="1">
          <mxGeometry width="70" height="70" as="geometry" />
        </mxCell>
        <mxCell id="m0oAnm_TRABMZVKxJMzM-44" value="" style="endArrow=none;dashed=1;html=1;rounded=0;exitX=0;exitY=1;exitDx=0;exitDy=0;" parent="m0oAnm_TRABMZVKxJMzM-42" source="m0oAnm_TRABMZVKxJMzM-43" edge="1">
          <mxGeometry width="50" height="50" relative="1" as="geometry">
            <mxPoint x="20" y="50" as="sourcePoint" />
            <mxPoint x="70" as="targetPoint" />
          </mxGeometry>
        </mxCell>
        <mxCell id="m0oAnm_TRABMZVKxJMzM-45" value="" style="endArrow=none;dashed=1;html=1;rounded=0;exitX=0;exitY=0;exitDx=0;exitDy=0;entryX=1;entryY=1;entryDx=0;entryDy=0;" parent="m0oAnm_TRABMZVKxJMzM-42" source="m0oAnm_TRABMZVKxJMzM-43" target="m0oAnm_TRABMZVKxJMzM-43" edge="1">
          <mxGeometry width="50" height="50" relative="1" as="geometry">
            <mxPoint x="31.069999999999993" y="20" as="sourcePoint" />
            <mxPoint x="38.92428571428576" y="100" as="targetPoint" />
          </mxGeometry>
        </mxCell>
        <mxCell id="m0oAnm_TRABMZVKxJMzM-46" value="" style="shape=image;html=1;verticalAlign=top;verticalLabelPosition=bottom;labelBackgroundColor=#ffffff;imageAspect=0;aspect=fixed;image=https://cdn4.iconfinder.com/data/icons/basic-user-interface-2/512/User_Interface-03-128.png" parent="1" vertex="1">
          <mxGeometry x="1220" y="129.5" width="71" height="71" as="geometry" />
        </mxCell>
        <mxCell id="m0oAnm_TRABMZVKxJMzM-47" value="Footer&amp;nbsp; - Copyright, external links" style="rounded=0;whiteSpace=wrap;html=1;" parent="1" vertex="1">
          <mxGeometry x="860" y="910" width="450" height="70" as="geometry" />
        </mxCell>
        <mxCell id="m0oAnm_TRABMZVKxJMzM-48" value="Page Header" style="rounded=0;whiteSpace=wrap;html=1;" parent="1" vertex="1">
          <mxGeometry x="935" y="220" width="300" height="60" as="geometry" />
        </mxCell>
        <mxCell id="m0oAnm_TRABMZVKxJMzM-49" value="" style="group" parent="1" vertex="1" connectable="0">
          <mxGeometry x="1015" y="300" width="140" height="140" as="geometry" />
        </mxCell>
        <mxCell id="m0oAnm_TRABMZVKxJMzM-50" value="" style="rounded=0;whiteSpace=wrap;html=1;" parent="m0oAnm_TRABMZVKxJMzM-49" vertex="1">
          <mxGeometry width="140" height="140" as="geometry" />
        </mxCell>
        <mxCell id="m0oAnm_TRABMZVKxJMzM-51" value="" style="endArrow=none;dashed=1;html=1;rounded=0;exitX=0;exitY=1;exitDx=0;exitDy=0;" parent="m0oAnm_TRABMZVKxJMzM-49" source="m0oAnm_TRABMZVKxJMzM-50" edge="1">
          <mxGeometry width="50" height="50" relative="1" as="geometry">
            <mxPoint x="40" y="100" as="sourcePoint" />
            <mxPoint x="140" as="targetPoint" />
          </mxGeometry>
        </mxCell>
        <mxCell id="m0oAnm_TRABMZVKxJMzM-52" value="" style="endArrow=none;dashed=1;html=1;rounded=0;exitX=0;exitY=0;exitDx=0;exitDy=0;entryX=1;entryY=1;entryDx=0;entryDy=0;" parent="m0oAnm_TRABMZVKxJMzM-49" source="m0oAnm_TRABMZVKxJMzM-50" target="m0oAnm_TRABMZVKxJMzM-50" edge="1">
          <mxGeometry width="50" height="50" relative="1" as="geometry">
            <mxPoint x="62.139999999999986" y="40" as="sourcePoint" />
            <mxPoint x="77.84857142857152" y="200" as="targetPoint" />
          </mxGeometry>
        </mxCell>
        <mxCell id="m0oAnm_TRABMZVKxJMzM-53" value="Budgeting Topic&amp;nbsp;" style="rounded=0;whiteSpace=wrap;html=1;" parent="1" vertex="1">
          <mxGeometry x="890" y="470" width="400" height="140" as="geometry" />
        </mxCell>
        <mxCell id="m0oAnm_TRABMZVKxJMzM-54" value="" style="group" parent="1" vertex="1" connectable="0">
          <mxGeometry x="1010" y="640" width="140" height="140" as="geometry" />
        </mxCell>
        <mxCell id="m0oAnm_TRABMZVKxJMzM-55" value="" style="rounded=0;whiteSpace=wrap;html=1;" parent="m0oAnm_TRABMZVKxJMzM-54" vertex="1">
          <mxGeometry width="140" height="140" as="geometry" />
        </mxCell>
        <mxCell id="m0oAnm_TRABMZVKxJMzM-56" value="" style="endArrow=none;dashed=1;html=1;rounded=0;exitX=0;exitY=1;exitDx=0;exitDy=0;" parent="m0oAnm_TRABMZVKxJMzM-54" source="m0oAnm_TRABMZVKxJMzM-55" edge="1">
          <mxGeometry width="50" height="50" relative="1" as="geometry">
            <mxPoint x="40" y="100" as="sourcePoint" />
            <mxPoint x="140" as="targetPoint" />
          </mxGeometry>
        </mxCell>
        <mxCell id="m0oAnm_TRABMZVKxJMzM-57" value="" style="endArrow=none;dashed=1;html=1;rounded=0;exitX=0;exitY=0;exitDx=0;exitDy=0;entryX=1;entryY=1;entryDx=0;entryDy=0;" parent="m0oAnm_TRABMZVKxJMzM-54" source="m0oAnm_TRABMZVKxJMzM-55" target="m0oAnm_TRABMZVKxJMzM-55" edge="1">
          <mxGeometry width="50" height="50" relative="1" as="geometry">
            <mxPoint x="62.139999999999986" y="40" as="sourcePoint" />
            <mxPoint x="77.84857142857152" y="200" as="targetPoint" />
          </mxGeometry>
        </mxCell>
        <mxCell id="m0oAnm_TRABMZVKxJMzM-58" value="Budgeting Topic&amp;nbsp;" style="rounded=0;whiteSpace=wrap;html=1;" parent="1" vertex="1">
          <mxGeometry x="885" y="800" width="400" height="110" as="geometry" />
        </mxCell>
      </root>
    </mxGraphModel>
  </diagram>
</mxfile>
